<?xml version="1.0" encoding="UTF-8"?>
<!-- Generator: Adobe Illustrator 19.0.0, SVG Export Plug-In . SVG Version: 6.00 Build 0)  -->
<svg version="1.1" id="Calque_1" xmlns="http://www.w3.org/2000/svg" xmlns:xlink="http://www.w3.org/1999/xlink" x="0px" y="0px" viewBox="0 0 106.9944 140" style="enable-background:new 0 0 106.9944 140;" xml:space="preserve">
<style type="text/css">
	.st0{fill:#949494;}
	.st1{fill:#808080;}
	.st2{fill:#1D1D1B;}
	.st3{fill:#0088A9;}
</style>
<g>
	<path class="st0" d="M53.2642,0 M53.2642,0L0,92.2528h106.5219L53.2642,0z M67.9676,70.8474l20.8083,0.0082l0.0148,0.0296   L78.3784,87.577L67.9676,70.8474z M17.8397,70.7635l20.8429,0.0066L28.2607,87.577L17.8397,70.7635z M53.3794,86.5951   L32.2536,49.6411l42.2696,0.0131L53.3794,86.5951z M55.8299,45.2892l9.401-15.2165l8.7842,15.2165H55.8299z M53.312,45.2144   L42.8921,28.3459l20.8437,0.0058L53.312,45.2144z M50.789,45.286l-18.2756-0.0024l8.8327-15.2946L50.789,45.286z M38.0593,68.584   H19.0617l9.5432-16.5285L38.0593,68.584z M40.2368,72.4016l8.6814,15.1753H30.8565L40.2368,72.4016z M66.4479,72.5447   l9.2875,15.0323H57.8438L66.4479,72.5447z M68.6666,68.6678l9.3812-16.3936l9.4684,16.3822L68.6666,68.6678z M53.2642,9.3434   l9.7118,16.813l-19.4252,0.0103L53.2642,9.3434z M16.5807,72.8802l9.0786,14.6967H8.0959L16.5807,72.8802z M81.0345,87.577   l8.9947-14.5487l8.3993,14.5487H81.0345z"/>
	<g>
		<path class="st1" d="M19.3372,128.882c0.6192-0.0337,2.0912-0.0509,2.9818,0.0173c1.6373,0.1209,2.3412,1.0509,2.3412,2.2219    c0,1.5328-1.2023,2.6191-3.2729,2.791c-0.7056,0.0518-1.5329,0.0518-2.0501,0V128.882z M19.3372,134.5907    c0.5172,0,1.8634,0.1209,2.7959-0.037c2.9185-0.4844,4.425-1.4317,4.425-3.518c0-2.083-1.3207-2.8272-5.337-2.8272h-3.6948v11.789    c0.2862-0.0181,0.5962-0.0419,0.9054-0.0419c0.2887,0,0.5773,0.0239,0.9054,0.0419V134.5907z"/>
		<path class="st1" d="M32.2791,135.9245c0,0.4852,0.0255,0.782-0.0444,1.2656c-0.1538,1.074-1,2.2639-2.4037,2.3371    c-1.1825,0.0732-1.7376-0.8536-1.6488-1.708c0.1998-1.9144,0.935-1.671,3.2071-2.3774l0.8898-0.2779V135.9245z M32.2791,134.7568    L32.2791,134.7568c-0.7557,0.296-1.0674,0.3898-2.4481,0.685c-1.6257,0.3528-3.2983,0.5584-3.388,2.4144    c-0.0444,1.1669,1.1817,2.0608,2.5624,2.1356c1.361,0.074,2.7178-0.5206,3.1643-1.6513v1.4276h2.717v-0.3141h-0.9342v-5.1815    c0-1.3733-0.2467-2.6553-3.1874-2.7836c-0.8001-0.037-1.0032,0.0345-1.5805,0.111c-0.6702,0.0921-1.2911,0.2985-1.7384,0.463    v2.4892h0.4021l0.4893-1.041c0.4227-0.8889,0.8026-1.856,2.2482-1.7253c1.4506,0.1291,1.6932,0.9276,1.6932,1.7845V134.7568z"/>
		<path class="st1" d="M39.9737,139.9975h-4.0278v-0.3149h0.9991v-7.4273h-1.0452v-0.3339h2.6052v1.6907    c0.1127-0.6143,1.0468-1.7483,2.518-1.7483c0.426,0,0.8042,0.0937,1.2269,0.2804v2.9349h-0.4227l-0.5353-1.3569    c-0.3791-0.9481-0.6669-1.5599-1.2483-1.2795c-1.5139,0.7253-1.3799,2.4695-1.3799,4.101v3.1389h1.31V139.9975z"/>
		<path class="st1" d="M43.3724,139.9975v-0.3149h1.0279v-7.4273H43.439v-0.3339h2.6956v7.7612h0.9152v0.3149H43.3724z     M46.179,130.0473c0,0.5181-0.5115,0.889-1.0904,0.889c-0.5583,0-1.0699-0.4079-1.0699-0.8725    c0-0.4638,0.4909-0.9103,1.0477-0.9103C45.6675,129.1534,46.179,129.5638,46.179,130.0473"/>
		<path class="st1" d="M53.6968,133.5726c-0.4227-1.2615-0.8454-1.7623-2.0032-1.7623c-1.0032,0-2.2746,0.3322-2.3642,1.3527    c-0.0642,0.9095,1.069,1.2812,2.0961,1.5608c1.7384,0.5,3.7655,1.0222,3.6972,2.6364c-0.0461,1.5427-1.5814,2.6734-3.6775,2.6356    c-1.2014-0.0164-2.5616-0.4095-3.0295-0.6817v-2.6578h0.4013l0.4679,1.3346c0.5123,1.5041,1.0929,1.5221,2.0073,1.5954    c1.2697,0.1135,2.7162-0.4071,2.8305-1.4457c0.1538-1.2812-1.8963-1.6167-3.189-2.0057    c-0.9136-0.2796-2.6931-0.7804-2.6931-2.3017c0-1.7836,2.3157-2.3765,3.5418-2.3765c1.0246,0,2.2063,0.3322,2.629,0.5575v2.43    h-0.4227L53.6968,133.5726z"/>
		<path class="st2" d="M60.5559,140c-0.329-0.0205-0.6184-0.0272-0.9054-0.0272c-0.3117,0-0.6168,0.0066-0.9038,0.0272v-11.0061    c-2.092,0-3.3527,0.1028-4.5319,0.208c0.0205-0.1743,0.0724-0.3429,0.0724-0.5148c0-0.1711-0.0518-0.324-0.0724-0.5123H64.883    c-0.0247,0.1883-0.0526,0.3412-0.0526,0.5123c0,0.1719,0.028,0.3405,0.0526,0.5123c-1.0386-0.1028-2.4851-0.2056-4.3271-0.2056    V140z"/>
		<path class="st2" d="M65.4488,133.5734c0.1546-0.8914,0.8684-1.745,1.8486-1.782c1.1809-0.0559,1.6249,0.9827,1.6496,1.9119    l0.0198,0.8749h-3.6972L65.4488,133.5734z M70.8581,136.7666H70.442l-0.0247,0.2237c-0.1135,1.1159-1.0263,2.7096-2.763,2.6175    c-1.9621-0.0929-2.3847-1.7993-2.3847-3.7293v-0.949H70.84c0.2039-1.7063-1.2269-3.5105-3.4522-3.4916    c-2.2959,0.0378-3.8551,1.9514-3.9891,4.2169c-0.1357,2.4687,1.7146,4.3797,4.1224,4.3427c1.893-0.0362,3.1857-1.43,3.3189-2.9694    L70.8581,136.7666z"/>
		<path class="st2" d="M78.6933,134.7815l-0.2253-0.6718c-0.4884-1.6093-1.069-2.3371-2.092-2.3552    c-2.1627-0.037-2.5213,2.3026-2.4752,4.0665c0.0427,1.6324,0.222,3.7326,2.4966,3.7499c1.3371,0.0181,2.1611-1.0411,2.3847-2.171    l0.1102-0.5954h0.4013l-0.0642,0.4087c-0.3372,2.1348-1.7433,2.8033-3.3025,2.7844c-2.5164-0.0181-3.9406-2.2088-3.9406-4.2901    c0-2.1693,1.671-4.1947,4.2778-4.2885c0.6661-0.0173,1.8273,0.0395,2.8519,0.5386v2.8239H78.6933z"/>
		<path class="st2" d="M85.1865,140v-0.3166h1.1776v-5.3262c0-1.0608,0.0247-2.1175-1.2713-2.0797    c-1.8683,0.0551-2.1134,2.2442-2.1134,3.8765v3.5294h1.2697V140h-3.8995v-0.3166h0.9358v-10.308h-1.0016v-0.3314h2.6956v4.2145    c0.2697-0.7031,1.4029-1.5591,2.6052-1.4654c1.8042,0.1299,2.4292,0.7623,2.4292,2.4695v5.4208h0.9818V140H85.1865z"/>
	</g>
	<g>
		<path class="st3" d="M0.0403,115.9533v-11.5176h6.2623v1.8593h-4.044v2.8329h3.8393v1.8083H2.2585v3.1232h4.044v1.8938H0.0403z     M2.378,103.6849l-0.7508-1.2458l2.9861-1.8774l0.9044,1.5016L2.378,103.6849z"/>
		<path class="st3" d="M11.5723,116.1071c-2.3547,0-3.8222-1.2286-3.8222-4.1125c0-2.6447,1.3821-4.6758,4.3853-4.6758    c0.5802,0,1.1945,0.0855,1.7405,0.2393l-0.2218,1.8938c-0.4607-0.1702-0.9897-0.3067-1.5357-0.3067    c-1.3821,0-2.0817,1.0238-2.0817,2.6273c0,1.4506,0.5631,2.4399,2.0135,2.4399c0.5801,0,1.2115-0.1193,1.6722-0.3577    l0.1707,1.8593C13.3128,115.936,12.4767,116.1071,11.5723,116.1071z"/>
		<path class="st3" d="M18.7013,116.1235c-2.406,0-3.9587-1.245-3.9587-4.2654c0-2.6446,1.7575-4.5558,4.3341-4.5558    c2.4059,0,3.9587,1.3306,3.9587,4.2482C23.0354,114.2124,21.2438,116.1235,18.7013,116.1235z M18.9231,109.1452    c-0.9726,0-1.9282,0.7508-1.9282,2.4908c0,1.7409,0.6313,2.6282,1.8941,2.6282c1.075,0,1.894-0.8709,1.894-2.5937    C20.7831,110.0325,20.2029,109.1452,18.9231,109.1452z"/>
		<path class="st3" d="M24.7922,115.9533v-12.4567h2.1841v12.4567H24.7922z"/>
		<path class="st3" d="M36.207,112.0628h-5.2555c-0.0171,1.5871,0.7678,2.3543,2.3377,2.3543c0.8361,0,1.7405-0.1875,2.4742-0.5288    l0.2047,1.6891c-0.9043,0.3586-1.9794,0.546-3.0373,0.546c-2.6961,0-4.1976-1.3478-4.1976-4.3337    c0-2.5936,1.4333-4.5047,3.9758-4.5047c2.4742,0,3.5663,1.6891,3.5663,3.7877C36.2752,111.363,36.2582,111.7043,36.207,112.0628z     M32.6407,108.8886c-0.9044,0-1.5357,0.6661-1.6552,1.6899h3.1226C34.1423,109.5202,33.5622,108.8886,32.6407,108.8886z"/>
		<path class="st3" d="M45.5736,115.9533c0-0.4095,0.0341-0.9555,0.1024-1.4161h-0.0341c-0.4436,0.9383-1.3821,1.6036-2.679,1.6036    c-2.0647,0-3.0885-1.5526-3.0885-3.976c0-2.8667,1.6722-4.846,4.4877-4.846c0.3583,0,0.6996,0.0173,1.075,0.0682v-3.8904h2.167    v12.4567H45.5736z M45.4371,109.1789c-0.3925-0.0856-0.7679-0.1365-1.1433-0.1365c-1.2456,0-2.1329,0.7853-2.1329,2.8839    c0,1.5871,0.4607,2.4061,1.4504,2.4061c1.1433,0,1.8258-1.3314,1.8258-2.782V109.1789z"/>
		<path class="st3" d="M56.8517,112.0628h-5.2555c-0.0171,1.5871,0.7678,2.3543,2.3379,2.3543c0.8359,0,1.7401-0.1875,2.474-0.5288    l0.2048,1.6891c-0.9041,0.3586-1.9794,0.546-3.0373,0.546c-2.6961,0-4.1976-1.3478-4.1976-4.3337    c0-2.5936,1.4333-4.5047,3.9756-4.5047c2.4744,0,3.5665,1.6891,3.5665,3.7877C56.9199,111.363,56.9027,111.7043,56.8517,112.0628z     M53.2852,108.8886c-0.9042,0-1.5355,0.6661-1.655,1.6899h3.1228C54.7868,109.5202,54.2071,108.8886,53.2852,108.8886z"/>
		<path class="st3" d="M60.2126,116.1235c-0.6143,0-1.2285-0.0683-1.7746-0.153l0.051-1.7918    c0.5287,0.1365,1.1776,0.2557,1.8256,0.2557c0.8363,0,1.3824-0.3413,1.3824-0.9046c0-1.5016-3.43-0.648-3.43-3.5319    c0-1.4843,1.2117-2.7129,3.6006-2.7129c0.4946,0,1.0407,0.0682,1.553,0.1538l-0.0683,1.7228    c-0.4778-0.1365-1.0411-0.2212-1.5699-0.2212c-0.8536,0-1.2631,0.3412-1.2631,0.87c0,1.3823,3.481,0.7681,3.481,3.5146    C64.0002,114.9977,62.5332,116.1235,60.2126,116.1235z"/>
		<path class="st3" d="M71.2002,111.9263c-0.2047,0-0.4778,0-0.7508-0.0346v4.0615h-2.2183v-11.5176    c0.9383-0.0518,1.9621-0.0682,3.0887-0.0682c2.8321,0,4.3851,1.3133,4.3851,3.5657    C75.7049,110.169,73.9986,111.9263,71.2002,111.9263z M71.2343,106.1758c-0.273,0-0.5288,0-0.7849,0.0173v3.8395    c0.2216,0.0337,0.4436,0.051,0.6484,0.051c1.3651-0.0173,2.3034-0.7681,2.3034-2.0139    C73.4011,106.9092,72.7359,106.1758,71.2343,106.1758z"/>
		<path class="st3" d="M79.595,116.1235c-2.4062,0-3.9587-1.245-3.9587-4.2654c0-2.6446,1.7574-4.5558,4.3337-4.5558    c2.4062,0,3.9587,1.3306,3.9587,4.2482C83.9287,114.2124,82.1372,116.1235,79.595,116.1235z M79.8166,109.1452    c-0.9724,0-1.928,0.7508-1.928,2.4908c0,1.7409,0.6312,2.6282,1.8939,2.6282c1.0748,0,1.8938-0.8709,1.8938-2.5937    C81.6763,110.0325,81.0966,109.1452,79.8166,109.1452z"/>
		<path class="st3" d="M90.8898,115.9533v-5.4266c0-0.8873-0.2389-1.416-1.0411-1.416c-1.1089,0-1.9794,1.2631-1.9794,2.7474v4.0952    h-2.1841v-8.4807h2.0649c0,0.3923-0.0341,1.0584-0.1192,1.5016l0.0169,0.0173c0.5119-1.0066,1.5016-1.7064,2.8835-1.7064    c1.9111,0,2.5254,1.2286,2.5254,2.7129v5.9553H90.8898z"/>
		<path class="st3" d="M98.19,116.1235c-1.877,0-2.4571-0.6825-2.4571-2.6619v-4.2999h-1.4675v-1.6891h1.4506v-2.6109l2.1841-0.5798    v3.1907h2.0645v1.6891h-2.0645v3.7202c0,1.092,0.2558,1.3988,1.0066,1.3988c0.3585,0,0.7508-0.051,1.0579-0.1365v1.7582    C99.4186,116.0388,98.7875,116.1235,98.19,116.1235z"/>
		<path class="st3" d="M103.2067,116.1235c-0.6143,0-1.2286-0.0683-1.7746-0.153l0.051-1.7918    c0.5288,0.1365,1.1776,0.2557,1.8256,0.2557c0.8363,0,1.3824-0.3413,1.3824-0.9046c0-1.5016-3.43-0.648-3.43-3.5319    c0-1.4843,1.2117-2.7129,3.6006-2.7129c0.4946,0,1.0407,0.0682,1.553,0.1538l-0.0683,1.7228    c-0.4778-0.1365-1.0411-0.2212-1.5698-0.2212c-0.8536,0-1.2631,0.3412-1.2631,0.87c0,1.3823,3.481,0.7681,3.481,3.5146    C106.9944,114.9977,105.5273,116.1235,103.2067,116.1235z"/>
	</g>
</g>
</svg>