<?xml version="1.0" encoding="UTF-8"?>
<!-- Generator: Adobe Illustrator 19.0.0, SVG Export Plug-In . SVG Version: 6.00 Build 0)  -->
<svg version="1.1" id="Calque_1" xmlns="http://www.w3.org/2000/svg" xmlns:xlink="http://www.w3.org/1999/xlink" x="0px" y="0px" viewBox="0 0 106.9944 140" style="enable-background:new 0 0 106.9944 140;" xml:space="preserve">
<style type="text/css">
	.st0{fill:#949494;}
</style>
<g>
	<path class="st0" d="M53.2642,0 M53.2642,0L0,92.2528h106.5219L53.2642,0z M67.9676,70.8474l20.8083,0.0082l0.0148,0.0296   L78.3784,87.577L67.9676,70.8474z M17.8397,70.7635l20.8429,0.0066L28.2607,87.577L17.8397,70.7635z M53.3794,86.5951   L32.2536,49.6411l42.2696,0.0131L53.3794,86.5951z M55.8299,45.2892l9.401-15.2165l8.7842,15.2165H55.8299z M53.312,45.2144   L42.8921,28.3459l20.8437,0.0058L53.312,45.2144z M50.789,45.286l-18.2756-0.0024l8.8327-15.2946L50.789,45.286z M38.0593,68.584   H19.0617l9.5432-16.5285L38.0593,68.584z M40.2368,72.4016l8.6814,15.1753H30.8565L40.2368,72.4016z M66.4479,72.5447   l9.2875,15.0323H57.8438L66.4479,72.5447z M68.6666,68.6678l9.3812-16.3936l9.4684,16.3822L68.6666,68.6678z M53.2642,9.3434   l9.7118,16.813l-19.4252,0.0103L53.2642,9.3434z M16.5807,72.8802l9.0786,14.6967H8.0959L16.5807,72.8802z M81.0345,87.577   l8.9947-14.5487l8.3993,14.5487H81.0345z"/>
</g>
</svg>